<?xml version="1.0" encoding="UTF-8" standalone="no"?>
<svg
  xmlns:svg="http://www.w3.org/2000/svg"
  xmlns:xlink="http://www.w3.org/1999/xlink"
  xmlns="http://www.w3.org/2000/svg"
  width="50"
  height="50">
  <defs>
    <g id="border">
	  <rect
        x="1" y="1" height="48" width="48" rx="10" ry="10"
        style="fill:#7ed321;fill-opacity:1;stroke:#000000;stroke-width:1;stroke-linejoin:round;stroke-miterlimit:4;stroke-opacity:1;stroke-dasharray:none"
	  />
	</g>
    <g id="club">
      <path
        style="color:#000000;fill:#000000;fill-opacity:1;fill-rule:nonzero;stroke:#000000;stroke-width:0.13405812;stroke-linecap:butt;stroke-linejoin:miter;stroke-miterlimit:4;stroke-opacity:1;stroke-dashoffset:0;marker:none;visibility:visible;display:block;overflow:visible"
        d="m -2.25,0.0 c -4.286858,-2.1123 -10.592701,0.4071 -9.100742, 6.0907 1.453918, 5.5386 7.73279,4.3231 9.904016,0.9516 -0.905805,6.3925 -2.496606,7.3877 -3.4501,8.7753 l 10.123067,0 c -1.025672,-1.4839 -2.88812,-2.3828 -3.980329,-8.8629 2.187847,3.3658 8.765075,4.5326 10.197987,-0.9259 1.409567,-5.3697 -4.944298,-8.4276 -9.169464,-5.9968 4.051531,-2.8063 5.50654,-12.0228 -2.167058,-12.0228 -7.749348,0 -6.456397,9.3966 -2.357377,11.9908 z"
      />
    </g>  
  </defs>
  
  <g id="6c">
	<use xlink:href="#border" />
	
	<text
       x="4" y="25" 
       style="font-size:28px;font-style:normal;font-variant:normal;font-weight:bold;font-stretch:normal;text-align:start;line-height:125%;letter-spacing:0px;word-spacing:0px;writing-mode:lr-tb;text-anchor:start;fill:#000000;fill-opacity:1;stroke:none;font-family:Verdana;-inkscape-font-specification:Verdana Bold"
       ><tspan>6</tspan>
	</text>
	
	<!-- club is centered on x=35 and dim = [23.5, 28] -->
	<use x="35" y="30" xlink:href="#club" />
  </g>  
</svg>
