<?xml version="1.0" encoding="UTF-8" standalone="no"?>
<svg
   xmlns:svg="http://www.w3.org/2000/svg"
   xmlns="http://www.w3.org/2000/svg"
   width="60"
   height="60">
  <g id="9c">
    <rect
        y="5" x="5" height="50" width="50" rx="10" ry="12"
        style="fill:#7ed321;fill-opacity:1;stroke:#000000;stroke-width:1;stroke-linejoin:round;stroke-miterlimit:4;stroke-opacity:1;stroke-dasharray:none" />
    <text transform="translate(-5.5,0.0)"
        y="30" x="14.63"
        style="font-size:28px;font-style:normal;font-variant:normal;font-weight:bold;font-stretch:normal;text-align:start;line-height:125%;letter-spacing:0px;word-spacing:0px;writing-mode:lr-tb;text-anchor:start;fill:#000000;fill-opacity:1;stroke:none;font-family:Verdana;-inkscape-font-specification:Verdana Bold"
        ><tspan>9</tspan>
	</text>
    <path transform="translate(15.5,-10.0)"
        style="color:#000000;fill:#000000;fill-opacity:1;fill-rule:nonzero;stroke:#000000;stroke-width:0.13405812;stroke-linecap:butt;stroke-linejoin:miter;stroke-miterlimit:4;stroke-opacity:1;stroke-dashoffset:0;marker:none;visibility:visible;display:block;overflow:visible"
        d="m 22.75,45.1 c -4.286858,-2.1123 -10.592701,0.4071 -9.100742,6.0907 1.453918,5.5386 7.73279,4.3231 9.904016,0.9516 -0.905805,6.3925 -2.496606,7.3877 -3.4501,8.7753 l 10.123067,0 c -1.025672,-1.4839 -2.88812,-2.3828 -3.980329,-8.8629 2.187847,3.3658 8.765075,4.5326 10.197987,-0.9259 1.409567,-5.3697 -4.944298,-8.4276 -9.169464,-5.9968 4.051531,-2.8063 5.50654,-12.0228 -2.167058,-12.0228 -7.749348,0 -6.456397,9.3966 -2.357377,11.9908 z"
    />
  </g>  
</svg>
