<?xml version="1.0" encoding="UTF-8" standalone="no"?>
<svg
  xmlns:svg="http://www.w3.org/2000/svg"
  xmlns:xlink="http://www.w3.org/1999/xlink"
  xmlns="http://www.w3.org/2000/svg"
  width="50"
  height="50">
  <defs>
    <g id="border">
	  <rect
        x="1" y="1" height="48" width="48" rx="10" ry="10"
        style="fill:#7ed321;fill-opacity:1;stroke:#000000;stroke-width:1;stroke-linejoin:round;stroke-miterlimit:4;stroke-opacity:1;stroke-dasharray:none"
	  />
	</g>
    <g id="heart" transform="scale(0.9)">
      <path
	    style="fill:#ff0000;fill-opacity:1"
        d="m 0,0 c -1.64996,-5.74499 -6.118857,-10.03946 -9.78139,-14.60702 -1.91943,-2.30876 -3.736363,-5.29811 -2.926481,-8.38314 0.934982,-3.25115 4.880458,-5.06618 8.094974,-3.99453 2.14715,0.65157 3.886972,2.34601 4.716323,4.37157 0.740286,-1.11433 1.321552,-2.36964 2.467283,-3.15987 2.752876,-2.25984 7.381991,-1.91706 9.562845,0.95372 1.606473,2.01793 1.262756,4.83463 0.183952,7.00549 -1.784648,3.75778 -5.04153,6.53692 -7.507123,9.84164 -1.865773,2.38567 -3.542819,4.98205 -4.410899,7.88678 -0.05951,0.13835 -0.295618,0.24524 -0.399484,0.0853 z" 
    />
    </g>  
  </defs>
  
  <g id="9h">
	<use xlink:href="#border" />
	
	<text
       x="4" y="25" 
       style="font-size:28px;font-style:normal;font-variant:normal;font-weight:bold;font-stretch:normal;text-align:start;line-height:125%;letter-spacing:0px;word-spacing:0px;writing-mode:lr-tb;text-anchor:start;fill:#ff0000;fill-opacity:1;stroke:none;font-family:Verdana;-inkscape-font-specification:Verdana Bold"
       ><tspan>9</tspan>
	</text>
	
	<!-- heart is centered on x=35 and dim = [24,24.5] -->
	<use x="35" y="46" xlink:href="#heart" />
  </g>  
</svg>
